<svg id="visual" viewBox="0 0 900 675" width="900" height="675" xmlns="http://www.w3.org/2000/svg" xmlns:xlink="http://www.w3.org/1999/xlink" version="1.1"><rect x="0" y="0" width="900" height="675" fill="#003F51"></rect><path d="M0 507L69 515L138 539L208 511L277 480L346 504L415 500L485 494L554 489L623 525L692 496L762 490L831 537L900 525L900 676L831 676L762 676L692 676L623 676L554 676L485 676L415 676L346 676L277 676L208 676L138 676L69 676L0 676Z" fill="#42797f"></path><path d="M0 540L69 521L138 562L208 532L277 517L346 551L415 549L485 543L554 530L623 512L692 534L762 521L831 523L900 535L900 676L831 676L762 676L692 676L623 676L554 676L485 676L415 676L346 676L277 676L208 676L138 676L69 676L0 676Z" fill="#5b8b92"></path><path d="M0 569L69 558L138 561L208 541L277 567L346 584L415 579L485 577L554 539L623 559L692 572L762 542L831 564L900 581L900 676L831 676L762 676L692 676L623 676L554 676L485 676L415 676L346 676L277 676L208 676L138 676L69 676L0 676Z" fill="#749ea5"></path><path d="M0 588L69 577L138 566L208 569L277 588L346 600L415 578L485 587L554 596L623 583L692 573L762 591L831 605L900 574L900 676L831 676L762 676L692 676L623 676L554 676L485 676L415 676L346 676L277 676L208 676L138 676L69 676L0 676Z" fill="#8cb0b9"></path><path d="M0 619L69 620L138 621L208 609L277 596L346 596L415 602L485 604L554 624L623 616L692 607L762 608L831 618L900 603L900 676L831 676L762 676L692 676L623 676L554 676L485 676L415 676L346 676L277 676L208 676L138 676L69 676L0 676Z" fill="#a6c4cc"></path><path d="M0 640L69 641L138 625L208 638L277 647L346 645L415 632L485 643L554 625L623 641L692 647L762 627L831 638L900 643L900 676L831 676L762 676L692 676L623 676L554 676L485 676L415 676L346 676L277 676L208 676L138 676L69 676L0 676Z" fill="#bfd7df"></path></svg>