<svg id="visual" viewBox="0 0 900 675" width="900" height="675" xmlns="http://www.w3.org/2000/svg" xmlns:xlink="http://www.w3.org/1999/xlink" version="1.1"><rect x="0" y="0" width="900" height="675" fill="#fffefe"></rect><path d="M0 130L11.5 146.7C23 163.3 46 196.7 69 211C92 225.3 115 220.7 138.2 202.5C161.3 184.3 184.7 152.7 207.8 136.2C231 119.7 254 118.3 277 123.2C300 128 323 139 346 146.8C369 154.7 392 159.3 415.2 155.5C438.3 151.7 461.7 139.3 484.8 126.8C508 114.3 531 101.7 554 91.3C577 81 600 73 623 96.2C646 119.3 669 173.7 692.2 174.3C715.3 175 738.7 122 761.8 93.2C785 64.3 808 59.7 831 61.3C854 63 877 71 888.5 75L900 79L900 0L888.5 0C877 0 854 0 831 0C808 0 785 0 761.8 0C738.7 0 715.3 0 692.2 0C669 0 646 0 623 0C600 0 577 0 554 0C531 0 508 0 484.8 0C461.7 0 438.3 0 415.2 0C392 0 369 0 346 0C323 0 300 0 277 0C254 0 231 0 207.8 0C184.7 0 161.3 0 138.2 0C115 0 92 0 69 0C46 0 23 0 11.5 0L0 0Z" fill="#42797f"></path><path d="M0 54L11.5 76.7C23 99.3 46 144.7 69 158C92 171.3 115 152.7 138.2 136.2C161.3 119.7 184.7 105.3 207.8 96.3C231 87.3 254 83.7 277 99.2C300 114.7 323 149.3 346 151.7C369 154 392 124 415.2 112C438.3 100 461.7 106 484.8 101.3C508 96.7 531 81.3 554 87.3C577 93.3 600 120.7 623 131.7C646 142.7 669 137.3 692.2 131.2C715.3 125 738.7 118 761.8 114.8C785 111.7 808 112.3 831 114.2C854 116 877 119 888.5 120.5L900 122L900 0L888.5 0C877 0 854 0 831 0C808 0 785 0 761.8 0C738.7 0 715.3 0 692.2 0C669 0 646 0 623 0C600 0 577 0 554 0C531 0 508 0 484.8 0C461.7 0 438.3 0 415.2 0C392 0 369 0 346 0C323 0 300 0 277 0C254 0 231 0 207.8 0C184.7 0 161.3 0 138.2 0C115 0 92 0 69 0C46 0 23 0 11.5 0L0 0Z" fill="#326a74"></path><path d="M0 123L11.5 113.2C23 103.3 46 83.7 69 72.5C92 61.3 115 58.7 138.2 59.3C161.3 60 184.7 64 207.8 71.2C231 78.3 254 88.7 277 100.7C300 112.7 323 126.3 346 126.8C369 127.3 392 114.7 415.2 116.8C438.3 119 461.7 136 484.8 136.5C508 137 531 121 554 104.5C577 88 600 71 623 70C646 69 669 84 692.2 91.3C715.3 98.7 738.7 98.3 761.8 106.7C785 115 808 132 831 136.2C854 140.3 877 131.7 888.5 127.3L900 123L900 0L888.5 0C877 0 854 0 831 0C808 0 785 0 761.8 0C738.7 0 715.3 0 692.2 0C669 0 646 0 623 0C600 0 577 0 554 0C531 0 508 0 484.8 0C461.7 0 438.3 0 415.2 0C392 0 369 0 346 0C323 0 300 0 277 0C254 0 231 0 207.8 0C184.7 0 161.3 0 138.2 0C115 0 92 0 69 0C46 0 23 0 11.5 0L0 0Z" fill="#235b68"></path><path d="M0 34L11.5 38.7C23 43.3 46 52.7 69 51C92 49.3 115 36.7 138.2 32C161.3 27.3 184.7 30.7 207.8 44.2C231 57.7 254 81.3 277 80.8C300 80.3 323 55.7 346 53C369 50.3 392 69.7 415.2 78.3C438.3 87 461.7 85 484.8 88.7C508 92.3 531 101.7 554 97.3C577 93 600 75 623 74C646 73 669 89 692.2 91.7C715.3 94.3 738.7 83.7 761.8 83.3C785 83 808 93 831 91.7C854 90.3 877 77.7 888.5 71.3L900 65L900 0L888.5 0C877 0 854 0 831 0C808 0 785 0 761.8 0C738.7 0 715.3 0 692.2 0C669 0 646 0 623 0C600 0 577 0 554 0C531 0 508 0 484.8 0C461.7 0 438.3 0 415.2 0C392 0 369 0 346 0C323 0 300 0 277 0C254 0 231 0 207.8 0C184.7 0 161.3 0 138.2 0C115 0 92 0 69 0C46 0 23 0 11.5 0L0 0Z" fill="#134d5d"></path><path d="M0 43L11.5 42.3C23 41.7 46 40.3 69 38.8C92 37.3 115 35.7 138.2 36.3C161.3 37 184.7 40 207.8 41C231 42 254 41 277 39.2C300 37.3 323 34.7 346 36.8C369 39 392 46 415.2 42.8C438.3 39.7 461.7 26.3 484.8 26.2C508 26 531 39 554 40.7C577 42.3 600 32.7 623 33.2C646 33.7 669 44.3 692.2 50.7C715.3 57 738.7 59 761.8 59.3C785 59.7 808 58.3 831 52.2C854 46 877 35 888.5 29.5L900 24L900 0L888.5 0C877 0 854 0 831 0C808 0 785 0 761.8 0C738.7 0 715.3 0 692.2 0C669 0 646 0 623 0C600 0 577 0 554 0C531 0 508 0 484.8 0C461.7 0 438.3 0 415.2 0C392 0 369 0 346 0C323 0 300 0 277 0C254 0 231 0 207.8 0C184.7 0 161.3 0 138.2 0C115 0 92 0 69 0C46 0 23 0 11.5 0L0 0Z" fill="#003f51"></path></svg>